<svg height="512pt" viewBox="0 0 512 512" width="512pt" xmlns="http://www.w3.org/2000/svg"><path d="m0 256c0-141.386719 114.613281-256 256-256 141.039062 0 256 114.960938 256 256 0 71.199219-29.074219 135.597656-75.984375 182-46.246094-45.746094-109.828125-74-180.015625-74-66.65625 0-127.359375 25.484375-172.90625 67.234375-4.089844 3.746094-10.4375 3.496094-14.222656-.554687-42.71875-45.742188-68.871094-107.152344-68.871094-174.679688zm0 0" fill="#4f66cf"/><path d="m336.203125 52v447.167969c-25.230469 8.316406-52.1875 12.832031-80.203125 12.832031-74.515625 0-141.585938-31.847656-188.367188-82.660156v-377.339844c0-5.523438 4.476563-10 10-10h248.570313c5.523437 0 10 4.476562 10 10zm0 0" fill="#01cffa"/><path d="m336.203125 52v447.167969c-25.230469 8.316406-52.1875 12.832031-80.203125 12.832031-55.773438 0-107.375-17.847656-149.425781-48.128906v-411.871094c0-5.523438 4.476562-10 10-10h209.628906c5.523437 0 10 4.476562 10 10zm0 0" fill="#62dafa"/><path d="m237.632812 63c0 5.523438-4.480468 10-10 10h-50c-5.523437 0-10-4.476562-10-10s4.476563-10 10-10h50c5.519532 0 10 4.476562 10 10zm-28.039062 409h-13.929688c-5.519531 0-10 4.476562-10 10s4.480469 10 10 10h13.929688c5.523438 0 10-4.476562 10-10s-4.476562-10-10-10zm0 0" fill="#08a8f0"/><path d="m306.058594 444.855469h-208.285156c-5.523438 0-10-4.476563-10-10v-342.570313c0-5.523437 4.476562-10 10-10h208.285156c5.523437 0 10 4.476563 10 10v342.570313c0 5.523437-4.476563 10-10 10zm0 0" fill="#d80d80"/><path d="m306.058594 444.855469h-176.054688c-5.523437 0-10-4.476563-10-10v-342.570313c0-5.523437 4.476563-10 10-10h176.054688c5.523437 0 10 4.476563 10 10v342.570313c0 5.523437-4.476563 10-10 10zm0 0" fill="#f02399"/><path d="m150 220v160c0 5.523438-4.476562 10-10 10h-20c-5.523438 0-10-4.476562-10-10v-160c0-5.523438 4.476562-10 10-10h20c5.523438 0 10 4.476562 10 10zm60-50h-20c-5.523438 0-10 4.476562-10 10v200c0 5.523438 4.476562 10 10 10h20c5.523438 0 10-4.476562 10-10v-200c0-5.523438-4.476562-10-10-10zm70-40h-20c-5.523438 0-10 4.476562-10 10v240c0 5.523438 4.476562 10 10 10h20c5.523438 0 10-4.476562 10-10v-240c0-5.523438-4.476562-10-10-10zm0 0" fill="#fd4fb6"/><path d="m380.886719 246.28125 52.757812 52.757812c6.867188 6.867188 10.722657 16.179688 10.722657 25.890626v168.761718c0 10.113282-8.195313 18.308594-18.304688 18.308594h-179.71875c-10.113281 0-18.308594-8.199219-18.308594-18.308594v-239.828125c0-10.109375 8.199219-18.304687 18.308594-18.304687h108.652344c9.710937 0 19.023437 3.855468 25.890625 10.722656zm0 0" fill="#fddfa6"/><path d="m426.0625 512h-146.460938c-10.109374 0-18.304687-8.195312-18.304687-18.308594v-239.828125c0-10.109375 8.195313-18.304687 18.304687-18.304687h75.394532c9.710937 0 19.023437 3.855468 25.890625 10.722656l52.757812 52.757812c6.867188 6.867188 10.722657 16.179688 10.722657 25.890626v168.765624c0 10.109376-8.195313 18.304688-18.304688 18.304688zm0 0" fill="#fde5bd"/><path d="m399.007812 482.707031h-125.613281c-8.28125 0-15-6.714843-15-15v-134.765625c0-8.285156 6.71875-15 15-15h125.617188c8.28125 0 15 6.714844 15 15v134.765625c-.003907 8.285157-6.71875 15-15.003907 15zm0 0" fill="#fdbf43"/><path d="m414.007812 354.554688v18.308593h-155.613281v-18.308593h41.195313v-36.613282h18.304687v36.613282h36.617188v-36.613282h18.304687v36.613282zm-155.613281 91.539062h41.195313v36.613281h18.304687v-36.613281h36.617188v36.613281h18.304687v-36.613281h41.191406v-18.308594h-155.613281zm0 0" fill="#fda800"/><path d="m370.851562 196.507812c3.90625 3.90625 3.90625 10.238282 0 14.144532-3.90625 3.902344-10.238281 3.902344-14.140624 0-11.699219-11.699219-30.730469-11.699219-42.429688 0-3.902344 3.902344-10.234375 3.902344-14.140625 0-3.90625-3.90625-3.90625-10.238282 0-14.144532 19.496094-19.492187 51.214844-19.492187 70.710937 0zm-91.21875-36.0625c-3.902343 3.90625-3.902343 10.238282 0 14.144532 3.90625 3.902344 10.238282 3.902344 14.144532 0 23.394531-23.394532 61.457031-23.394532 84.851562 0 3.90625 3.902344 10.238282 3.902344 14.140625 0 3.90625-3.90625 3.90625-10.238282 0-14.144532-31.191406-31.191406-81.945312-31.191406-113.136719 0zm141.421876-35.355468c-46.789063-46.789063-122.917969-46.789063-169.707032 0-3.902344 3.90625-3.902344 10.238281 0 14.144531 3.90625 3.902344 10.238282 3.902344 14.144532 0 38.988281-38.992187 102.429687-38.992187 141.417968 0 3.90625 3.902344 10.238282 3.902344 14.144532 0 3.90625-3.90625 3.90625-10.238281 0-14.144531zm0 0" fill="#fff5f5"/></svg>