<?xml version="1.0" encoding="iso-8859-1"?>
<!-- Generator: Adobe Illustrator 19.0.0, SVG Export Plug-In . SVG Version: 6.00 Build 0)  -->
<svg version="1.1" id="Capa_1" xmlns="http://www.w3.org/2000/svg" xmlns:xlink="http://www.w3.org/1999/xlink" x="0px" y="0px"
	 viewBox="0 0 512 512" style="enable-background:new 0 0 512 512;" xml:space="preserve">
<circle style="fill:#303F9E;" cx="256" cy="256" r="256"/>
<path style="fill:#1A237E;" d="M256,512c130.367,0,237.974-97.449,253.953-223.478l-90.63-90.629l-4.869,23.304l-73.581-73.582
	L190.557,279.719l-83.984-83.984l2.071,139.051L192.857,419v85.145C213.055,509.269,234.208,512,256,512z"/>
<circle style="fill:#FEEA3B;" cx="257.07" cy="214.44" r="107.18"/>
<path style="fill:#FED500;" d="M257.075,107.255c-0.375,0-0.748,0.011-1.123,0.015v214.335c0.375,0.004,0.747,0.014,1.123,0.014
	c59.194-0.001,107.18-47.988,107.18-107.183S316.269,107.255,257.075,107.255z"/>
<circle style="fill:#FEC007;" cx="257.07" cy="214.44" r="80.86"/>
<path style="fill:#FEB200;" d="M257.075,133.581c-0.377,0-0.748,0.023-1.123,0.028v161.656c0.375,0.005,0.746,0.028,1.123,0.028
	c44.655,0,80.855-36.201,80.855-80.857C337.93,169.781,301.73,133.58,257.075,133.581z"/>
<path style="fill:#FEF5E0;" d="M293.23,192.524v-4.355c0-13.701-11.102-24.849-24.78-24.942v-8.828H245.7v8.828
	c-13.678,0.092-24.781,11.241-24.781,24.942v12.539c0,13.757,11.193,24.95,24.95,24.95h22.411c1.213,0,2.199,0.986,2.199,2.2v12.846
	c0,1.213-0.986,2.2-2.2,2.2h-22.411c-1.213,0-2.199-0.987-2.199-2.2v-2.849h-22.75v2.849c0,13.701,11.102,24.85,24.781,24.942v8.828
	h22.75v-8.828c13.678-0.093,24.78-11.242,24.78-24.942v-12.846c0-13.758-11.193-24.95-24.95-24.95h-22.411
	c-1.213,0-2.199-0.987-2.199-2.2v-12.539c0-1.213,0.986-2.2,2.199-2.2h22.411c1.213,0,2.199,0.987,2.199,2.2v4.355H293.23z"/>
<g>
	<path style="fill:#DFDFDF;" d="M268.281,225.659c1.213,0,2.199,0.986,2.199,2.2v12.846c0,1.213-0.986,2.2-2.199,2.2l-12.328,0.001
		v31.57h12.499v-8.828c13.678-0.093,24.78-11.241,24.78-24.942V227.86c0-13.758-11.193-24.95-24.95-24.95l-12.328,0.001v22.75
		h12.327V225.659z"/>
	<path style="fill:#DFDFDF;" d="M293.23,192.524v-4.355c0-13.701-11.102-24.849-24.78-24.942v-8.828h-12.499v31.57h12.328
		c1.213,0,2.199,0.987,2.199,2.2v4.355L293.23,192.524z"/>
</g>
<path style="fill:#FAA68E;" d="M410.944,194.343c-5.288,0.004-9.936,3.579-11.313,8.684c-0.02,0.074-0.04,0.145-0.063,0.218
	l-26.221,84.33c0.557,0.378,1.1,0.784,1.628,1.218c8.283,6.811,10.438,18.546,5.111,27.813l-25.198,44.074
	c-1.593,2.789-5.145,3.755-7.932,2.162c-2.789-1.593-3.816-5.188-2.162-7.932l25.198-44.075c2.467-4.364,1.488-9.861-2.401-13.06
	c-2.124-1.745-4.8-2.56-7.535-2.292c-2.737,0.267-5.205,1.584-6.95,3.707l-42.663,51.906c-4.79,5.831-7.801,12.872-8.701,20.365
	l-23.658,139.58c24.404-2.086,47.829-7.592,69.797-16.043l-7.761-43.935c-1.18-12.463,3.229-24.68,12.104-33.516l53.333-53.104
	c9.405-9.995,14.606-23.052,14.65-36.774l2.422-122.718C422.056,198.977,416.97,194.337,410.944,194.343z"/>
<path style="fill:#FFBEAA;" d="M101.056,194.343c5.288,0.004,9.936,3.579,11.313,8.684c0.02,0.074,0.04,0.146,0.063,0.218
	l26.222,84.33c-0.557,0.378-1.1,0.784-1.628,1.218c-8.283,6.811-10.438,18.546-5.112,27.813l25.198,44.074
	c1.593,2.789,5.145,3.755,7.932,2.162c2.789-1.593,3.816-5.188,2.162-7.932l-25.198-44.075c-2.467-4.364-1.488-9.861,2.401-13.06
	c2.123-1.745,4.8-2.56,7.535-2.292c2.737,0.267,5.205,1.584,6.95,3.707l42.663,51.906c4.79,5.831,7.801,12.872,8.701,20.365
	l23.658,139.58c-24.404-2.086-47.829-7.592-69.797-16.043l7.762-43.935c1.18-12.463-3.229-24.68-12.104-33.516l-53.333-53.104
	c-9.406-9.995-14.606-23.052-14.65-36.774l-2.422-122.718C89.944,198.977,95.029,194.337,101.056,194.343z"/>
<g>
</g>
<g>
</g>
<g>
</g>
<g>
</g>
<g>
</g>
<g>
</g>
<g>
</g>
<g>
</g>
<g>
</g>
<g>
</g>
<g>
</g>
<g>
</g>
<g>
</g>
<g>
</g>
<g>
</g>
</svg>
