<?xml version="1.0" encoding="iso-8859-1"?>
<!-- Generator: Adobe Illustrator 19.0.0, SVG Export Plug-In . SVG Version: 6.00 Build 0)  -->
<svg version="1.1" id="Layer_1" xmlns="http://www.w3.org/2000/svg" xmlns:xlink="http://www.w3.org/1999/xlink" x="0px" y="0px"
	 viewBox="0 0 512 512" style="enable-background:new 0 0 512 512;" xml:space="preserve">
<path style="fill:#3A4DE3;" d="M343.937,466.544H168.062c-23.973,0-43.587-19.615-43.587-43.587V89.044
	c0-23.973,19.615-43.587,43.587-43.587h175.875c23.973,0,43.587,19.615,43.587,43.587v333.913
	C387.525,446.93,367.911,466.544,343.937,466.544z"/>
<path style="fill:#1C2EDE;" d="M387.525,422.956V89.044c0-23.973-19.615-43.587-43.587-43.587h-86.901v421.088h86.901
	C367.911,466.544,387.525,446.93,387.525,422.956z"/>
<rect x="153.765" y="78.972" style="fill:#FFFFFF;" width="206.542" height="322.733"/>
<rect x="257.041" y="78.972" style="fill:#E1E1E3;" width="103.276" height="322.733"/>
<rect x="153.765" y="378.572" style="fill:#00E8F2;" width="206.542" height="23.134"/>
<rect x="257.041" y="378.572" style="fill:#00D9E0;" width="103.276" height="23.134"/>
<path style="fill:#FFFFFF;" d="M277.847,445.104h-43.695c-6.108,0-11.106-4.998-11.106-11.106v-0.111
	c0-6.108,4.998-11.106,11.106-11.106h43.695c6.108,0,11.106,4.998,11.106,11.106v0.111
	C288.953,440.107,283.955,445.104,277.847,445.104z"/>
<path style="fill:#E1E1E3;" d="M288.96,433.998v-0.111c0-6.108-4.998-11.106-11.106-11.106h-20.818v22.323h20.818
	C283.963,445.104,288.96,440.107,288.96,433.998z"/>
<circle style="fill:#FFE670;" cx="255.996" cy="255.996" r="255.996"/>
<path style="fill:#FEC000;" d="M512,256.001c0-24.133-3.345-47.483-9.586-69.617L378.052,62.021
	c-8.002-10.071-20.337-16.565-34.123-16.565H168.055c-23.973,0-43.587,19.615-43.587,43.587v333.912
	c0,13.785,6.493,26.12,16.565,34.123l45.33,45.33c22.141,6.245,45.498,9.591,69.637,9.591C397.385,512,512,397.385,512,256.001z"/>
<path style="fill:#3A4DE3;" d="M343.931,466.544H168.056c-23.973,0-43.587-19.615-43.587-43.587V89.044
	c0-23.973,19.615-43.587,43.587-43.587h175.875c23.973,0,43.587,19.615,43.587,43.587v333.913
	C387.518,446.93,367.903,466.544,343.931,466.544z"/>
<path style="fill:#1C2EDE;" d="M387.518,422.956V89.044c0-23.973-19.615-43.587-43.587-43.587H257.03v421.088h86.901
	C367.903,466.544,387.518,446.93,387.518,422.956z"/>
<rect x="153.755" y="78.972" style="fill:#FFFFFF;" width="206.542" height="322.733"/>
<rect x="257.031" y="78.972" style="fill:#E1E1E3;" width="103.276" height="322.733"/>
<rect x="153.755" y="378.572" style="fill:#00E8F2;" width="206.542" height="23.134"/>
<rect x="257.031" y="378.572" style="fill:#00D9E0;" width="103.276" height="23.134"/>
<path style="fill:#FFFFFF;" d="M277.841,445.104h-43.695c-6.108,0-11.106-4.998-11.106-11.106v-0.111
	c0-6.108,4.998-11.106,11.106-11.106h43.695c6.108,0,11.106,4.998,11.106,11.106v0.111
	C288.947,440.107,283.949,445.104,277.841,445.104z"/>
<path style="fill:#E1E1E3;" d="M288.953,433.998v-0.111c0-6.108-4.998-11.106-11.106-11.106h-20.818v22.323h20.818
	C283.955,445.104,288.953,440.107,288.953,433.998z"/>
<g>
</g>
<g>
</g>
<g>
</g>
<g>
</g>
<g>
</g>
<g>
</g>
<g>
</g>
<g>
</g>
<g>
</g>
<g>
</g>
<g>
</g>
<g>
</g>
<g>
</g>
<g>
</g>
<g>
</g>
</svg>
