<?xml version="1.0" encoding="iso-8859-1"?>
<!-- Generator: Adobe Illustrator 21.0.0, SVG Export Plug-In . SVG Version: 6.00 Build 0)  -->
<svg xmlns="http://www.w3.org/2000/svg" xmlns:xlink="http://www.w3.org/1999/xlink" version="1.1" id="Capa_1" x="0px" y="0px" viewBox="0 0 512 512" style="enable-background:new 0 0 512 512;" xml:space="preserve" width="512" height="512">
<g>
	<g>
		<g>
			<g>
				<g>
					<g>
						<g>
							<g>
								<g>
									<g>
										<g>
											<circle style="fill:#65B1FC;" cx="256" cy="256" r="256"/>
										</g>
									</g>
								</g>
							</g>
						</g>
					</g>
				</g>
			</g>
		</g>
	</g>
	<path style="fill:#3992EA;" d="M511.927,261.737l-79.749-79.749l-7.033,16.127L320.606,93.576L124.285,416.71l92.263,92.263   C229.408,510.962,242.583,512,256,512C395.467,512,508.875,400.471,511.927,261.737z"/>
	<g>
		<path style="fill:#555A66;" d="M299.992,422.5H141.311c-15.438,0-27.954-12.515-27.954-27.954V112.454    c0-15.438,12.515-27.954,27.954-27.954h158.681c15.438,0,27.954,12.515,27.954,27.954v282.093    C327.946,409.985,315.43,422.5,299.992,422.5z"/>
	</g>
	<g>
		<path style="fill:#333940;" d="M299.992,84.5h-80.397v338h80.397c15.438,0,27.954-12.515,27.954-27.954V112.454    C327.946,97.015,315.43,84.5,299.992,84.5z"/>
	</g>
	<g>
		<rect x="136.652" y="110.319" style="fill:#FFFFFF;" width="168" height="288.361"/>
	</g>
	<g>
		<rect x="219.595" y="110.319" style="fill:#E9EDF5;" width="85.056" height="288.361"/>
	</g>
	<g>
		<path style="fill:#FFCE00;" d="M379.323,311.215H252.52l-51.377,28.421V235.789c0-41.656,33.769-75.426,75.426-75.426h102.754    c41.656,0,75.426,33.769,75.426,75.426v0C454.748,277.446,420.979,311.215,379.323,311.215z"/>
	</g>
	<g>
		<path style="fill:#FFB000;" d="M379.323,160.364h-51.394v150.851h51.394c41.656,0,75.426-33.769,75.426-75.426l0,0    C454.748,194.133,420.979,160.364,379.323,160.364z"/>
	</g>
	<g>
		<g>
			<rect x="246.194" y="181.988" style="fill:#FFFFFF;" width="163.503" height="23.859"/>
		</g>
	</g>
	<g>
		<g>
			<rect x="327.929" y="181.988" style="fill:#E9EDF5;" width="81.769" height="23.859"/>
		</g>
	</g>
	<g>
		<g>
			<rect x="246.194" y="222.632" style="fill:#FFFFFF;" width="163.503" height="23.859"/>
		</g>
	</g>
	<g>
		<g>
			<rect x="327.929" y="222.632" style="fill:#E9EDF5;" width="81.769" height="23.859"/>
		</g>
	</g>
	<g>
		<g>
			<rect x="246.194" y="263.275" style="fill:#FFFFFF;" width="163.503" height="23.859"/>
		</g>
	</g>
	<g>
		<g>
			<rect x="327.929" y="263.275" style="fill:#E9EDF5;" width="81.769" height="23.859"/>
		</g>
	</g>
</g>















</svg>
