<?xml version="1.0" encoding="iso-8859-1"?>
<!-- Generator: Adobe Illustrator 19.0.0, SVG Export Plug-In . SVG Version: 6.00 Build 0)  -->
<svg version="1.1" id="Capa_1" xmlns="http://www.w3.org/2000/svg" xmlns:xlink="http://www.w3.org/1999/xlink" x="0px" y="0px"
	 viewBox="0 0 512 512" style="enable-background:new 0 0 512 512;" xml:space="preserve">
<circle style="fill:#983262;" cx="256" cy="256" r="256"/>
<path style="fill:#662E57;" d="M512,256c0-8.33-0.412-16.563-1.19-24.69L356.5,77L153,197.667l-9.046,29.817l137.752,137.752
	L155.5,429.333l81.996,81.996C243.608,511.766,249.776,512,256,512C397.385,512,512,397.385,512,256z"/>
<rect x="155.5" y="77" style="fill:#333333;" width="201" height="352.33"/>
<rect x="255.67" y="77" style="fill:#1A1A1A;" width="100.83" height="352.33"/>
<rect x="172" y="101.5" style="fill:#35CCFF;" width="168" height="282"/>
<rect x="255.67" y="101.5" style="fill:#00BAFF;" width="84.33" height="282"/>
<path style="fill:#FFDC00;" d="M334.338,261.196c-43.195-43.197-113.481-43.2-156.679-0.008l-18.546-18.548
	c53.421-53.42,140.347-53.416,193.773,0.009L334.338,261.196z"/>
<path style="fill:#FFC000;" d="M255.667,202.582V228.8c28.482-0.083,56.99,10.713,78.672,32.396l18.548-18.547
	C326.089,215.853,290.864,202.499,255.667,202.582z"/>
<path style="fill:#FFDC00;" d="M295.315,300.22c-21.676-21.676-56.951-21.683-78.632-0.009l-18.546-18.549
	c31.907-31.899,83.821-31.894,115.725,0.012L295.315,300.22z"/>
<path style="fill:#FFC000;" d="M255.667,257.749v26.218c14.349-0.083,28.725,5.33,39.648,16.253l18.548-18.547
	C297.826,265.636,276.733,257.666,255.667,257.749z"/>
<path style="fill:#FFDC00;" d="M368.044,227.495c-61.779-61.781-162.306-61.788-224.09-0.012l-18.546-18.548
	c72.01-72.003,189.176-71.997,261.184,0.013L368.044,227.495z"/>
<path style="fill:#FFC000;" d="M255.667,154.941v26.218c40.688-0.083,81.403,15.36,112.377,46.336l18.548-18.547
	C350.503,172.859,303.072,154.859,255.667,154.941z"/>
<circle style="fill:#1A1A1A;" cx="256" cy="404.5" r="12.5"/>
<path d="M256,392c-0.113,0-0.221,0.014-0.333,0.017v24.966c0.112,0.003,0.221,0.017,0.333,0.017c6.904,0,12.5-5.596,12.5-12.5
	S262.904,392,256,392z"/>
<circle style="fill:#FFDC00;" cx="256" cy="331" r="19"/>
<path style="fill:#FFC000;" d="M256,312c-0.113,0-0.221,0.015-0.333,0.017v37.966c0.112,0.002,0.221,0.017,0.333,0.017
	c10.493,0,19-8.507,19-19S266.493,312,256,312z"/>
<g>
</g>
<g>
</g>
<g>
</g>
<g>
</g>
<g>
</g>
<g>
</g>
<g>
</g>
<g>
</g>
<g>
</g>
<g>
</g>
<g>
</g>
<g>
</g>
<g>
</g>
<g>
</g>
<g>
</g>
</svg>
