<svg height="512pt" viewBox="0 0 512 512" width="512pt" xmlns="http://www.w3.org/2000/svg"><path d="m512 256c0 141.386719-114.613281 256-256 256s-256-114.613281-256-256 114.613281-256 256-256 256 114.613281 256 256zm0 0" fill="#4a7aff"/><path d="m512 256c0-13.039062-.980469-25.847656-2.863281-38.363281l-65.636719-65.636719-375 208 149.136719 149.136719c12.515625 1.882812 25.324219 2.863281 38.363281 2.863281 141.386719 0 256-114.613281 256-256zm0 0" fill="#2864f0"/><path d="m68.5 152h375v208h-375zm0 0" fill="#fff"/><path d="m68.5 255.539062h375v104.460938h-375zm0 0" fill="#e9edf5"/><path d="m68.5 152h242.359375v208h-242.359375zm0 0" fill="#fe6a16"/><path d="m68.5 255.539062h242.359375v104.460938h-242.359375zm0 0" fill="#f24500"/><path d="m108.011719 303.890625 129.550781-129.554687 33.78125 33.777343-129.554688 129.554688zm0 0" fill="#fff"/><path d="m156.363281 255.539062-48.351562 48.351563 33.78125 33.777344 82.125-82.128907zm0 0" fill="#e9edf5"/><path d="m169.9375 205.296875c0 17.097656-13.863281 30.960937-30.960938 30.960937-17.101562 0-30.964843-13.863281-30.964843-30.960937 0-17.101563 13.863281-30.964844 30.964843-30.964844 17.097657 0 30.960938 13.863281 30.960938 30.964844zm0 0" fill="#fff"/><path d="m271.347656 306.703125c0 17.101563-13.863281 30.964844-30.960937 30.964844-17.101563 0-30.964844-13.863281-30.964844-30.964844 0-17.097656 13.863281-30.960937 30.964844-30.960937 17.097656 0 30.960937 13.863281 30.960937 30.960937zm0 0" fill="#e9edf5"/><path d="m328.332031 173.851562h96.667969v20.960938h-96.667969zm0 0" fill="#414952"/><path d="m328.332031 316.703125h96.667969v20.964844h-96.667969zm0 0" fill="#333940"/><path d="m349.441406 211.109375h75.558594v20.964844h-75.558594zm0 0" fill="#414952"/><path d="m349.441406 247.335938h75.558594v20.960937h-75.558594zm0 0" fill="#414952"/><g fill="#333940"><path d="m349.441406 255.539062h75.558594v12.757813h-75.558594zm0 0"/><path d="m349.441406 279.925781h75.558594v20.964844h-75.558594zm0 0"/></g></svg>